<svg xmlns="http://www.w3.org/2000/svg" viewBox="0 0 1590.5 576.44"><defs><style>.cls-1{fill:#231f20;}.cls-2{fill:none;stroke:#231f20;stroke-miterlimit:10;stroke-width:6px;}</style></defs><title>Asset 71x</title><g id="Layer_2" data-name="Layer 2"><g id="Layer_2-2" data-name="Layer 2"><path class="cls-1" d="M938,0h65.49L921.77,409.48H856.28Z"/><path class="cls-1" d="M1424.91,0h65.49l-81.73,409.48h-65.48Z"/><path class="cls-1" d="M289.26,310.1H132q5.19,91.66,71.35,91.66,17.68,0,40.35-8.33T276.76,370l7.29,5.21Q272.59,394.48,245,407t-55,12.5q-27.33,0-49.21-5.47a148.22,148.22,0,0,1-42.71-18.49q-20.82-13-32.54-39.06t-11.72-63q0-63,34.89-93.48t84.63-30.46q49.74,0,82.81,33.33T289.26,310.1Zm-157.8-10.42h84.89q0-47.91-10.16-83.84T173.64,179.9q-22.39,0-32.29,34.63T131.46,294Z"/><path class="cls-1" d="M805.58,405.65h18.5v7.4h-92.5v-7.4h18.5V233h-14.8v-7.4h70.3Zm12-270.6A31.24,31.24,0,0,1,808.12,158c-6.29,6.29-34.68,9.43-43.69,9.43A31.81,31.81,0,0,1,741.31,158a30.91,30.91,0,0,1-9.62-22.94,32.85,32.85,0,0,1,32.74-32.75c9,0,37.4,3.21,43.69,9.62A31.86,31.86,0,0,1,817.56,135.05Z"/><path class="cls-1" d="M1572,405.65h18.5v7.4H1498v-7.4h18.5V233h-14.8v-7.4H1572Zm12-270.6a31.23,31.23,0,0,1-9.43,22.94c-6.29,6.29-34.69,9.43-43.69,9.43a31.83,31.83,0,0,1-23.13-9.43,30.91,30.91,0,0,1-9.62-22.94,32.85,32.85,0,0,1,32.75-32.75c9,0,37.4,3.21,43.69,9.62A31.85,31.85,0,0,1,1584,135.05Z"/><path class="cls-1" d="M1023.07,566.43q-11.77,10-31.4,10T961.07,568a26.82,26.82,0,0,1-11-22.36q0-13.93,8-22.17a26.11,26.11,0,0,1,19.42-8.24q11.37,0,19.23,4.31t11,9.42q8.64,13.72,16.29,13.73t13.53-13.34l68.35-159.87-91.81-173h-15.7v-7.85H1104v7.85h-19.62L1136.93,300l81.43-183.12H1187v-7.85h64.35v7.85h-23.54L1045.43,533.67Q1034.84,556.43,1023.07,566.43Z"/><path class="cls-1" d="M672.75,114.76q18.46,19.39,18.47,54.25,0,10-2.67,27l-44,216.74H617.48l44-217.17a114.2,114.2,0,0,0,1.9-21.35q0-24.41-12.57-37.69t-37-13.29q-30.48,0-50.66,19.39T536.16,200L499,412.76h-27l38-217.17a138.63,138.63,0,0,0,1.91-20.92q0-24.82-12.39-38.12t-37.14-13.29q-30.86,0-51.05,20.26C397.74,157,373.48,263.45,368.66,289.88L347.32,412.76h-27L375,97.11h25.9l-6.48,36.6q27.44-38.33,75.82-38.34,25.14,0,42.09,11.77t23.44,34q14.85-22.65,36.38-34.2t48.19-11.55Q654.26,95.37,672.75,114.76Z"/><path class="cls-2" d="M111.73,302.38c-22.09,5-47,1.14-67.25-8.71-10.23-5-19.94-11.89-26.69-21.18-9.3-12.83-16.09-39,5.65-45,18.14-5,26.13,20.3,21.42,33.71C38.47,279.36,19.47,296,.62,300"/></g></g></svg>