<svg width="59" height="53" viewBox="0 0 59 53" fill="none" xmlns="http://www.w3.org/2000/svg">
<path d="M18.3835 12.3418L19.7253 15.025L25.0917 12.3414L23.7499 9.65822L18.3835 12.3418ZM9.06654 10L6.84669 7.98205L6.84669 7.98205L9.06654 10ZM13.5665 23.0001L12.8389 25.9105L12.8389 25.9105L13.5665 23.0001ZM21.0664 24L21.5226 26.9652L21.0664 21L21.0664 24ZM5.06657 36.5001L8.04821 36.1687L5.06657 36.5001ZM14.0664 46L13.3388 48.9104L13.4889 48.948L13.6421 48.9698L14.0664 46ZM33.5664 40L35.5419 42.2577L33.5664 40ZM28.0665 33.5L25.138 32.8493L28.0665 33.5ZM37.5664 42.0001L37.8977 39.0184L37.5664 42.0001ZM23.7499 9.65822C22.5424 7.24376 19.8494 5.25005 16.8345 4.58846C13.5893 3.87629 9.85507 4.67276 6.84669 7.98205L11.2864 12.018C12.778 10.3772 14.2937 10.1737 15.5485 10.449C17.0336 10.7749 18.0906 11.7563 18.3835 12.3418L23.7499 9.65822ZM6.84669 7.98205C3.77779 11.3579 3.09782 15.4341 4.51543 18.9895C5.88048 22.4131 9.02684 24.9574 12.8389 25.9105L14.2942 20.0896C12.1061 19.5426 10.6499 18.1748 10.0888 16.7673C9.58014 15.4917 9.65023 13.8178 11.2864 12.018L6.84669 7.98205ZM20.6102 21.0349C17.3169 21.5416 12.5975 22.4762 8.77613 24.6393C6.83376 25.7387 4.97338 27.2374 3.68506 29.3031C2.36539 31.4189 1.76409 33.9443 2.08492 36.8314L8.04821 36.1687C7.86898 34.5558 8.20512 33.3936 8.77604 32.4783C9.37829 31.5126 10.3616 30.6363 11.7317 29.8608C14.5353 28.2739 18.3159 27.4585 21.5226 26.9652L20.6102 21.0349ZM2.08492 36.8314C2.52307 40.7743 4.09296 43.6179 6.3765 45.5918C8.56663 47.4849 11.1791 48.3705 13.3388 48.9104L14.794 43.0896C12.9535 42.6294 11.4286 42.0279 10.3002 41.0525C9.26513 40.1579 8.33523 38.7516 8.04821 36.1687L2.08492 36.8314ZM13.6421 48.9698C19.359 49.7865 23.7786 49.1255 27.3875 47.6525C30.9457 46.2001 33.514 44.0321 35.5419 42.2577L31.5909 37.7422C29.6188 39.4678 27.687 41.0497 25.1201 42.0974C22.604 43.1244 19.2735 43.7134 14.4907 43.0301L13.6421 48.9698ZM35.5419 42.2577C41.2304 37.2804 40.0422 30.1339 35.408 27.8168L32.7248 33.1834C32.8574 33.2497 33.3024 33.6539 33.3616 34.4724C33.4102 35.144 33.1865 36.3461 31.5909 37.7422L35.5419 42.2577ZM35.408 27.8168C33.8549 27.0402 31.7247 26.8363 29.7779 27.4965C27.6294 28.2252 25.7734 29.9897 25.138 32.8493L30.9951 34.1508C31.0919 33.7154 31.2377 33.5112 31.3237 33.4169C31.415 33.3169 31.5349 33.2363 31.705 33.1786C31.8868 33.117 32.1092 33.0889 32.336 33.1042C32.4457 33.1116 32.5407 33.1282 32.6149 33.1473C32.6912 33.167 32.7267 33.1843 32.7248 33.1834L35.408 27.8168ZM25.138 32.8493C24.2718 36.7471 26.5673 39.8027 28.9174 41.6222C31.3122 43.4763 34.4641 44.6738 37.2351 44.9817L37.8977 39.0184C36.1688 38.8263 34.0707 38.0239 32.5905 36.8779C31.0657 35.6974 30.8613 34.7529 30.9951 34.1508L25.138 32.8493ZM37.2351 44.9817C39.3693 45.2189 42.2533 45.064 45.059 44.2879C47.8411 43.5183 50.9181 42.0313 52.9665 39.3L48.1665 35.7C47.215 36.9688 45.5489 37.927 43.4593 38.5051C41.3935 39.0766 39.2774 39.1717 37.8977 39.0184L37.2351 44.9817ZM12.8389 25.9105C14.6103 26.3533 17.1948 27 21.0664 27L21.0664 21C17.938 21 15.921 20.4963 14.2942 20.0896L12.8389 25.9105Z" fill="#384746"/>
<circle cx="41.5664" cy="12" r="6" stroke="#384746" stroke-width="6"/>
<circle cx="55.5664" cy="30" r="3" fill="#384746"/>
</svg>
